<?xml version="1.0" encoding="UTF-8" standalone="no"?>
<svg
   version="1.0"
   width="603.000000pt"
   height="320.000000pt"
   viewBox="0 0 603.000000 320.000000"
   preserveAspectRatio="xMidYMid meet"
   id="svg8"
   sodipodi:docname="868210e20c51b9928aaa40059f428a1b.svg"
   inkscape:version="1.2 (dc2aedaf03, 2022-05-15)"
   xmlns:inkscape="http://www.inkscape.org/namespaces/inkscape"
   xmlns:sodipodi="http://sodipodi.sourceforge.net/DTD/sodipodi-0.dtd"
   xmlns="http://www.w3.org/2000/svg"
   xmlns:svg="http://www.w3.org/2000/svg">
  <defs
     id="defs12" />
  <sodipodi:namedview
     id="namedview10"
     pagecolor="#ffffff"
     bordercolor="#000000"
     borderopacity="0.25"
     inkscape:showpageshadow="2"
     inkscape:pageopacity="0.0"
     inkscape:pagecheckerboard="true"
     inkscape:deskcolor="#d1d1d1"
     inkscape:document-units="pt"
     showgrid="false"
     showborder="true"
     inkscape:zoom="1.858209"
     inkscape:cx="402.53815"
     inkscape:cy="212.3012"
     inkscape:window-width="1920"
     inkscape:window-height="1016"
     inkscape:window-x="0"
     inkscape:window-y="27"
     inkscape:window-maximized="1"
     inkscape:current-layer="svg8" />
  <metadata
     id="metadata2">
Created by potrace 1.16, written by Peter Selinger 2001-2019
</metadata>
  <g
     transform="translate(0.000000,320.000000) scale(0.100000,-0.100000)"
     fill="#000000"
     stroke="none"
     id="g6"
     style="fill:#ffffff">
    <path
       d="M4909 2935 c-13 -13 -28 -25 -34 -25 -13 -1 -65 -46 -65 -57 -1 -9 -173 -146 -192 -152 -7 -2 -19 -13 -27 -23 -7 -11 -23 -23 -36 -28 -33 -12 -37 -44 -10 -70 21 -20 27 -21 59 -10 20 6 36 18 36 25 0 22 57 75 80 75 11 0 30 11 42 25 12 14 32 25 46 25 13 0 37 13 54 30 27 28 68 41 68 22 0 -15 -22 -30 -36 -25 -8 3 -14 0 -14 -6 0 -6 7 -11 15 -11 11 0 15 -12 15 -44 0 -29 5 -46 14 -49 38 -15 43 -195 6 -204 -19 -5 -24 -35 -36 -228 -5 -70 -12 -115 -21 -123 -16 -17 -17 -25 -17 -410 -1 -287 -3 -315 -19 -326 -9 -7 -29 -11 -43 -8 -15 3 -29 -1 -34 -8 -14 -22 -52 23 -48 56 2 22 -5 37 -31 62 -18 18 -35 31 -38 28 -9 -9 -43 14 -43 29 0 24 -35 37 -64 24 -19 -9 -32 -9 -56 1 -28 12 -31 17 -28 53 3 51 -18 67 -89 67 -65 0 -133 37 -133 73 0 12 -7 31 -15 41 -8 11 -15 27 -15 36 0 21 -84 62 -98 48 -5 -5 -22 -8 -38 -6 l-29 3 3 95 3 95 42 39 c23 21 42 42 42 46 0 8 59 60 69 60 21 0 166 142 166 162 0 11 5 28 10 39 9 16 7 19 -9 19 -30 0 -51 11 -51 26 0 8 -4 14 -10 14 -5 0 -10 -4 -10 -10 0 -5 -19 -22 -42 -37 -24 -16 -81 -58 -127 -95 -47 -38 -90 -68 -97 -68 -8 0 -18 -9 -24 -20 -6 -11 -17 -20 -25 -20 -7 0 -26 -15 -42 -34 -27 -33 -32 -35 -128 -46 -55 -7 -149 -14 -210 -16 -176 -5 -399 -26 -406 -36 -4 -6 -8 -7 -10 -1 -5 12 -283 -3 -308 -17 -23 -12 -1537 -3 -1671 10 -58 5 -109 10 -115 10 -5 0 -113 -3 -240 -7 -126 -4 -270 -7 -318 -6 l-88 0 7 -51 c3 -28 14 -56 23 -63 15 -11 14 -12 -1 -13 -19 0 -26 -20 -8 -20 6 0 10 -10 10 -22 l0 -23 433 -2 c237 -2 497 -6 575 -10 131 -7 145 -6 153 10 8 13 23 17 69 17 32 0 62 -5 65 -10 3 -6 25 -10 49 -10 l42 0 -83 -84 c-46 -46 -83 -87 -83 -91 0 -4 -10 -15 -23 -25 -40 -32 -80 -117 -86 -182 -1 -5 -8 -8 -16 -8 -8 0 -15 -5 -15 -10 0 -7 7 -7 20 0 16 9 22 8 26 -5 7 -16 44 -21 44 -5 0 6 5 10 11 10 5 0 7 -5 4 -10 -4 -6 -3 -24 0 -42 5 -20 10 -26 15 -18 4 7 13 9 20 5 8 -5 11 -3 8 6 -3 8 -13 13 -22 13 -20 -2 -21 16 0 42 8 10 13 14 10 7 -4 -6 1 -19 11 -28 16 -16 18 -16 35 5 20 25 23 40 8 40 -5 0 -10 -5 -10 -12 0 -6 -3 -9 -6 -6 -9 10 15 48 31 48 9 0 12 6 8 17 -4 9 -2 14 3 10 5 -3 17 8 26 24 10 16 13 29 8 29 -5 0 21 30 58 68 111 111 270 179 439 189 51 3 90 9 88 14 -3 4 -1 10 4 14 5 3 13 -1 18 -9 4 -8 28 -17 53 -20 62 -7 75 -11 154 -41 88 -33 122 -51 167 -86 39 -30 55 -37 43 -17 -4 7 -3 8 5 4 6 -4 9 -11 7 -15 -3 -4 9 -24 25 -44 17 -21 46 -67 66 -104 19 -37 38 -72 41 -78 9 -13 34 -125 34 -147 -1 -10 7 -18 16 -19 11 0 12 -3 5 -6 -9 -3 -13 -30 -13 -86 0 -69 3 -84 22 -104 12 -13 16 -23 10 -23 -6 0 -14 5 -17 10 -12 19 -23 1 -30 -47 -10 -73 -60 -192 -110 -267 -25 -37 -43 -71 -40 -76 3 -6 -1 -7 -9 -4 -9 3 -35 -9 -61 -30 -26 -19 -60 -41 -76 -48 -16 -7 -29 -20 -29 -28 0 -11 -2 -12 -8 -3 -6 10 -15 10 -40 1 -18 -7 -32 -16 -32 -21 0 -4 -3 -6 -7 -4 -5 3 -37 -1 -73 -9 -87 -18 -229 -17 -315 2 -38 9 -80 16 -93 15 -12 0 -22 3 -22 8 0 4 -34 25 -76 45 -106 53 -172 122 -228 239 -24 50 -47 109 -51 129 -4 22 -13 38 -21 38 -8 0 -14 5 -14 10 0 6 5 10 11 10 5 0 8 4 4 10 -3 5 -13 7 -23 4 -14 -5 -14 -4 -2 4 8 6 18 8 22 6 4 -3 8 0 8 5 0 6 -9 11 -20 11 -11 0 -20 5 -20 10 0 6 6 10 14 10 21 0 13 54 -8 58 -10 2 -15 -2 -14 -10 2 -8 -6 -13 -19 -12 -18 0 -23 -5 -23 -24 0 -15 -7 -26 -20 -29 -22 -6 -28 -33 -7 -34 6 0 3 -4 -8 -9 -19 -7 -19 -8 -1 -15 21 -9 37 10 29 34 -3 11 0 10 11 -4 15 -18 15 -21 -2 -37 -13 -14 -26 -17 -51 -12 -20 4 -28 10 -21 14 7 4 8 10 3 13 -24 15 -30 -10 -15 -68 17 -71 15 -67 36 -59 14 5 15 9 4 16 -10 7 -10 11 -1 15 18 7 27 1 28 -20 1 -9 -4 -17 -12 -17 -18 0 -16 -10 4 -26 17 -13 17 -13 1 -14 -10 0 -18 -4 -18 -9 0 -5 11 -8 25 -6 22 2 25 -1 19 -19 -6 -20 -6 -20 8 -2 15 18 15 18 20 -2 3 -12 1 -23 -6 -25 -17 -6 0 -19 28 -21 31 -1 47 -44 22 -58 -20 -11 -21 -29 -1 -22 10 4 15 0 15 -15 0 -14 6 -21 20 -21 18 0 24 -10 21 -32 -1 -8 147 -144 154 -141 2 1 17 -9 31 -22 34 -32 152 -88 170 -81 8 3 14 2 14 -2 0 -10 54 -30 106 -38 39 -6 42 -4 48 20 4 15 11 24 17 21 5 -4 7 -15 4 -26 -7 -21 3 -23 115 -20 66 1 97 7 170 31 104 34 150 58 144 75 -3 8 -1 15 5 15 6 0 11 -4 11 -10 0 -5 17 1 38 13 42 25 292 270 292 287 0 6 11 26 25 44 22 29 23 35 10 46 -8 7 -15 22 -14 34 0 21 0 21 9 -1 13 -32 25 -29 43 15 39 89 49 133 54 245 5 101 4 117 -9 112 -9 -4 -15 0 -15 9 0 8 6 12 15 9 12 -5 13 2 7 38 -27 170 -98 301 -248 454 l-92 95 120 2 c133 3 158 2 264 -8 57 -5 76 -3 83 7 7 11 11 11 15 2 7 -20 108 -17 128 3 14 14 32 16 117 11 55 -3 104 -9 107 -14 3 -4 38 -8 77 -9 62 0 75 -4 109 -30 22 -16 52 -43 68 -61 15 -17 53 -48 83 -68 31 -21 70 -50 87 -65 67 -60 127 -99 162 -106 25 -4 43 -16 58 -39 24 -36 127 -125 144 -125 19 0 73 -32 73 -43 0 -21 72 -82 150 -128 101 -59 170 -108 170 -122 0 -7 25 -28 55 -46 30 -19 55 -40 55 -45 0 -6 19 -24 41 -41 23 -16 47 -41 55 -55 l13 -25 1 30 c0 17 -5 46 -11 65 -6 19 -14 57 -18 85 l-6 50 -22 -24 c-12 -13 -26 -20 -32 -16 -18 10 -13 19 20 34 29 13 31 16 26 54 -3 22 -10 43 -16 47 -7 4 -11 39 -10 89 1 80 2 83 36 116 32 31 40 34 89 32 30 -1 54 -5 54 -8 0 -4 10 -9 21 -12 18 -5 21 -11 17 -39 -5 -29 1 -40 51 -95 31 -33 63 -74 71 -90 8 -15 32 -44 52 -63 21 -20 38 -41 38 -48 0 -18 32 -52 43 -45 6 3 7 1 3 -6 -7 -11 45 -69 100 -112 l21 -16 -3 134 c-2 74 -9 143 -14 154 -9 15 -7 19 5 19 12 0 15 12 15 55 0 30 5 66 12 80 9 19 9 28 0 37 -15 15 -16 55 -2 63 13 8 13 162 0 170 -8 5 -7 11 0 20 13 15 9 117 -9 225 -6 36 -13 135 -17 220 -4 85 -10 162 -15 172 -5 9 -9 155 -10 325 -1 169 -5 326 -9 348 -4 22 -8 33 -9 24 0 -9 -25 -37 -53 -63 -29 -26 -64 -58 -78 -70 -14 -13 -44 -34 -66 -48 -21 -14 -45 -33 -53 -42 -7 -9 -19 -16 -27 -16 -7 0 -19 -12 -26 -27 -8 -18 -24 -29 -44 -34 -17 -3 -42 -13 -55 -22 -33 -24 -54 -21 -77 8 -17 22 -19 36 -15 103 4 51 1 86 -6 100 -7 12 -14 51 -18 87 -5 58 -8 65 -27 65 -12 0 -28 -6 -35 -12 -11 -10 -14 -10 -18 0 -7 19 -29 14 -54 -13z m492 -371 c9 -12 14 -79 16 -271 2 -141 7 -261 12 -267 5 -6 11 -50 14 -99 2 -48 10 -93 16 -101 12 -14 13 -21 8 -153 -1 -46 2 -83 6 -83 5 0 5 -4 2 -10 -10 -17 -17 -72 -18 -159 -2 -60 -6 -86 -15 -89 -7 -2 -16 5 -19 17 -6 24 -8 25 -32 11 -14 -7 -21 -4 -31 15 -7 14 -19 25 -27 25 -7 0 -13 10 -14 23 0 14 -3 17 -6 7 -7 -17 -29 -40 -39 -40 -3 0 -2 6 3 13 15 20 14 64 -2 71 -8 3 -15 13 -15 23 0 10 -15 34 -33 53 -42 47 -80 139 -75 186 2 23 -2 39 -10 42 -15 5 -16 54 0 70 9 9 9 17 0 34 -13 27 -24 161 -26 305 -1 67 -5 106 -13 114 -18 18 -16 32 7 52 11 9 20 22 20 29 0 13 92 98 107 98 4 0 25 16 46 35 21 19 44 35 51 35 8 0 19 7 26 15 16 19 24 19 41 -1z"
       id="path4"
       style="fill:#ffffff" />
  </g>
</svg>
