<?xml version="1.0" encoding="UTF-8" standalone="no"?>
<svg
   version="1.0"
   width="444.31866pt"
   height="112.51875pt"
   viewBox="0 0 444.31866 112.51875"
   preserveAspectRatio="xMidYMid"
   id="svg3"
   sodipodi:docname="kilroy.svg"
   inkscape:version="1.3 (0e150ed6c4, 2023-07-21)"
   xmlns:inkscape="http://www.inkscape.org/namespaces/inkscape"
   xmlns:sodipodi="http://sodipodi.sourceforge.net/DTD/sodipodi-0.dtd"
   xmlns="http://www.w3.org/2000/svg"
   xmlns:svg="http://www.w3.org/2000/svg">
  <defs
     id="defs3" />
  <sodipodi:namedview
     id="namedview3"
     pagecolor="#ffffff"
     bordercolor="#000000"
     borderopacity="0.25"
     inkscape:showpageshadow="2"
     inkscape:pageopacity="0.0"
     inkscape:pagecheckerboard="0"
     inkscape:deskcolor="#d1d1d1"
     inkscape:document-units="pt"
     inkscape:zoom="1.6148649"
     inkscape:cx="591.99999"
     inkscape:cy="149.85774"
     inkscape:window-width="2560"
     inkscape:window-height="1011"
     inkscape:window-x="0"
     inkscape:window-y="0"
     inkscape:window-maximized="1"
     inkscape:current-layer="svg3" />
  <metadata
     id="metadata1">&#10;A screaming comes across the sky.&#10;</metadata>
  <g
     transform="matrix(0.05004853,0,0,-0.05004853,-0.02502427,112.55258)"
     fill="#000000"
     stroke="none"
     id="g3"
     style="fill:#548a8a;fill-opacity:1">
    <path
       d="m 4470,2234 c -57,-17 -155,-68 -156,-80 -2,-26 -17,-41 -35,-37 -10,3 -19,9 -19,13 0,13 -95,70 -116,70 -10,0 -39,7 -62,15 -49,17 -195,15 -230,-4 -11,-6 -22,-7 -26,-4 -3,3 -6,1 -6,-6 0,-7 -4,-10 -10,-6 -5,3 -27,-10 -48,-30 -45,-40 -62,-43 -87,-15 -10,11 -24,20 -31,20 -7,0 -14,5 -16,12 -2,6 -24,13 -49,15 -24,2 -56,8 -71,14 -24,10 -52,9 -133,-6 -5,-1 -17,-3 -26,-3 -9,-1 -27,-12 -40,-23 -13,-12 -41,-32 -61,-45 -21,-13 -40,-35 -44,-49 -3,-14 -9,-25 -13,-25 -11,0 -41,-57 -34,-64 4,-4 2,-11 -5,-15 -14,-9 -65,-141 -54,-141 4,0 1,-4 -5,-8 -7,-5 -15,-21 -17,-38 -3,-27 -8,-42 -43,-122 -8,-18 -12,-45 -9,-60 8,-36 17,-206 21,-367 2,-71 6,-148 10,-170 3,-22 9,-51 11,-65 2,-14 6,-51 9,-82 2,-31 8,-72 13,-90 5,-18 9,-88 10,-155 l 1,-123 -27,-1 c -15,0 -61,1 -102,2 -41,1 -93,3 -115,3 -22,1 -44,4 -50,8 -5,3 -53,6 -105,7 -52,1 -104,3 -115,4 -19,2 -49,24 -51,36 -1,12 -30,68 -56,110 -16,26 -28,59 -28,78 0,18 -5,33 -11,33 -5,0 -7,5 -4,10 3,6 -2,10 -11,10 -10,0 -14,3 -11,7 4,3 0,15 -10,25 -22,24 -98,25 -107,2 -4,-9 -9,-14 -12,-11 -8,8 -41,-28 -49,-54 -5,-13 -9,-40 -10,-59 -2,-50 -23,-116 -40,-130 -8,-7 -15,-18 -15,-25 0,-7 -6,-18 -14,-24 -16,-14 -76,-133 -76,-152 0,-22 -31,13 -47,53 -8,21 -19,38 -23,38 -5,0 -11,18 -15,39 -3,22 -13,47 -20,58 -8,10 -15,26 -15,35 0,9 -5,18 -11,20 -6,2 -13,33 -15,68 -3,36 -8,72 -11,80 -3,8 -7,20 -8,25 -5,20 -34,80 -47,96 -9,11 -28,15 -59,15 -52,-2 -79,-18 -79,-48 0,-10 -7,-32 -14,-47 -8,-15 -15,-37 -15,-47 1,-26 -5,-46 -16,-64 -5,-8 -10,-21 -12,-29 -1,-8 -7,-17 -14,-22 -7,-4 -16,-31 -21,-61 -5,-29 -10,-60 -11,-70 -4,-19 -26,-48 -37,-48 -5,0 -12,15 -15,32 -4,18 -10,37 -13,43 -3,5 -7,18 -8,30 -2,11 -6,36 -9,55 -3,19 -8,55 -11,80 -2,25 -6,54 -9,65 -2,11 -4,30 -4,42 -1,15 -12,28 -32,39 -39,20 -69,26 -69,13 0,-5 -7,-9 -16,-9 -16,0 -59,-46 -59,-65 -1,-17 -38,-69 -72,-100 -18,-17 -33,-36 -33,-42 0,-6 -4,-13 -8,-15 -18,-7 -52,-67 -42,-73 7,-4 -1,-19 -21,-37 -28,-27 -35,-30 -73,-23 -63,11 -148,12 -181,3 C 899,563 695,558 462,555 196,552 32,546 20,540 -6,526 -6,471 20,439 c 46,-57 48,-58 113,-53 34,3 74,5 90,6 15,0 27,5 27,10 0,5 4,7 10,3 33,-20 244,-26 425,-11 61,5 212,9 338,8 125,0 225,3 222,8 -3,4 1,10 8,13 7,2 21,22 32,43 11,22 28,45 38,52 23,17 48,67 39,77 -4,5 -2,5 5,1 7,-4 16,7 24,29 12,32 27,46 30,28 1,-5 3,-20 4,-35 2,-14 11,-47 19,-73 9,-25 16,-53 16,-63 0,-9 7,-30 16,-47 9,-16 18,-43 20,-60 3,-16 7,-37 11,-45 3,-8 6,-42 7,-75 l 1,-60 60,-3 c 50,-3 64,1 83,18 13,12 21,29 19,38 -2,10 4,37 14,62 9,25 17,48 18,52 1,4 8,23 16,42 8,20 15,42 15,50 0,8 5,18 11,22 6,3 9,15 6,25 -3,11 0,19 6,19 6,0 8,3 5,6 -5,5 0,28 17,79 1,6 6,20 10,33 4,12 11,22 15,22 8,0 53,-87 54,-105 1,-15 24,-72 56,-140 16,-33 34,-80 40,-105 6,-25 15,-54 20,-65 15,-36 23,-60 25,-78 2,-22 40,-58 64,-60 21,-1 75,39 90,68 5,11 12,36 14,55 3,19 9,46 15,60 5,14 11,30 12,35 1,6 11,27 21,48 11,21 17,42 14,46 -3,5 0,11 5,13 6,2 12,13 13,25 0,12 3,20 6,18 8,-9 52,50 58,78 3,15 9,27 13,27 4,0 10,18 14,40 11,70 27,54 61,-64 10,-35 29,-71 45,-87 15,-16 26,-30 24,-32 -2,-2 61,-2 141,0 106,3 153,0 177,-10 51,-21 318,-27 528,-11 52,4 131,6 175,4 193,-9 407,-1 424,16 2,2 11,-5 19,-17 11,-15 15,-62 18,-182 2,-89 4,-170 5,-179 1,-24 15,-31 72,-35 44,-2 53,1 79,29 22,24 28,37 23,57 -3,15 -7,71 -10,124 -2,54 -8,104 -12,110 -15,20 -15,71 0,100 12,23 12,34 0,79 -8,33 -15,121 -17,228 -4,186 -5,201 -21,212 -13,10 -97,0 -108,-11 -5,-5 -11,-36 -13,-68 -1,-32 -9,-76 -16,-98 -8,-22 -13,-49 -12,-60 3,-36 16,-109 19,-116 2,-3 -5,-13 -16,-22 -10,-9 -19,-14 -19,-12 0,3 -9,1 -20,-5 -10,-6 -61,-10 -112,-9 -51,1 -157,1 -236,1 -103,-1 -141,2 -136,10 5,7 2,9 -8,6 -8,-4 -39,-9 -69,-13 -72,-9 -79,0 -85,116 -3,51 -10,101 -15,110 -6,11 -5,20 1,24 13,8 13,67 -1,102 -6,16 -12,113 -13,223 -3,196 -12,296 -27,306 -4,2 -6,10 -4,17 7,21 17,90 20,137 1,25 6,66 11,90 4,25 9,54 9,65 2,23 21,74 35,95 6,8 17,30 26,48 48,106 134,173 192,151 29,-12 69,-21 90,-22 8,0 23,-12 34,-27 16,-22 20,-45 22,-132 3,-128 21,-163 110,-215 26,-15 66,-17 66,-2 0,5 3,8 8,6 4,-3 21,9 39,26 58,57 76,199 31,247 -11,12 -17,24 -14,27 3,4 -3,17 -15,29 -11,12 -19,30 -17,41 3,16 16,18 146,20 82,1 142,-2 142,-8 0,-5 6,-9 14,-9 8,0 18,-5 22,-11 11,-19 22,-79 14,-79 -8,0 -20,-37 -26,-82 -2,-16 0,-28 4,-28 4,0 8,-8 9,-17 5,-67 44,-204 68,-237 7,-10 19,-18 27,-20 7,-1 19,-5 26,-10 7,-4 16,-5 19,-2 3,3 12,1 19,-5 22,-18 72,0 97,34 46,63 83,254 45,231 -7,-4 -8,-2 -4,4 4,7 4,18 -1,25 -4,6 -8,17 -9,22 0,6 -2,16 -2,23 -1,7 -7,10 -14,6 -6,-4 -8,-3 -4,4 3,6 -1,17 -10,26 -8,9 -13,20 -10,24 3,5 -4,21 -14,37 l -19,29 27,19 c 73,49 134,63 192,44 19,-6 38,-11 42,-12 4,0 15,-6 25,-12 10,-7 34,-23 53,-36 l 35,-23 6,-139 c 8,-184 28,-254 84,-303 65,-57 130,-47 210,31 29,29 30,32 32,139 2,85 -1,110 -12,114 -8,4 -12,15 -9,32 4,18 -1,31 -12,39 -10,7 -15,13 -11,13 4,0 -6,14 -23,31 -16,17 -32,40 -35,50 -4,11 -10,19 -15,19 -4,0 -10,9 -13,21 -4,16 2,23 26,33 58,24 96,34 99,26 2,-5 21,-11 43,-14 22,-4 44,-11 49,-16 6,-6 18,-10 28,-10 10,0 18,-5 18,-11 0,-5 5,-7 10,-4 6,3 10,0 10,-7 0,-8 8,-21 18,-30 27,-25 66,-79 68,-95 4,-26 26,-73 34,-73 5,0 14,-17 21,-37 6,-21 15,-42 19,-48 9,-11 18,-78 24,-170 2,-33 7,-73 11,-90 4,-16 9,-57 11,-90 2,-33 6,-76 9,-95 7,-39 7,-39 0,-124 -4,-42 -1,-62 7,-68 14,-8 19,-168 6,-168 -4,0 -7,-15 -7,-32 0,-18 -4,-48 -10,-67 -7,-24 -7,-40 0,-54 20,-36 26,-188 9,-231 -11,-30 -43,-38 -71,-18 -20,14 -58,16 -263,14 -281,-3 -381,-7 -416,-16 -48,-12 -52,0 -51,155 0,79 3,165 5,191 6,68 -8,82 -84,83 -72,0 -96,-19 -85,-70 10,-49 14,-152 19,-495 2,-179 6,-332 8,-341 6,-24 29,-50 39,-43 5,3 9,0 9,-7 0,-8 15,-10 50,-7 54,5 60,8 64,30 1,7 5,19 9,26 9,13 -10,82 -22,82 -8,0 -9,8 -14,145 -2,55 -2,105 0,112 5,14 635,10 703,-5 25,-6 201,-10 400,-10 h 355 l 28,30 c 15,16 27,38 27,48 0,10 11,32 25,48 14,17 25,33 25,36 0,9 39,51 42,45 21,-34 30,-57 34,-92 4,-23 11,-51 17,-62 6,-11 10,-26 8,-33 -1,-8 3,-20 9,-27 6,-7 13,-37 15,-67 10,-135 38,-177 109,-165 21,4 46,33 46,54 0,8 9,23 20,35 10,11 27,37 36,57 9,20 29,54 44,76 15,22 28,43 29,48 0,4 10,16 21,27 11,11 20,33 20,50 0,18 5,29 12,28 7,-2 18,15 25,37 8,22 21,43 29,48 8,5 12,12 9,17 -6,10 21,7 32,-3 4,-4 9,-20 11,-35 2,-15 10,-46 18,-70 8,-23 14,-48 14,-55 0,-7 6,-19 12,-25 7,-7 13,-25 14,-40 5,-70 24,-133 51,-165 12,-16 23,-25 23,-22 0,4 7,2 15,-5 12,-10 21,-10 45,0 16,7 30,16 30,21 0,4 10,17 22,29 12,11 18,20 12,20 -5,0 -3,4 4,8 7,5 15,26 18,48 3,21 6,48 8,59 1,11 12,39 24,62 12,23 23,55 24,73 1,17 10,38 20,47 10,9 18,24 18,35 0,10 5,18 10,18 6,0 10,9 10,20 0,11 7,20 15,20 17,0 35,-38 28,-58 -3,-6 -1,-12 4,-12 5,0 9,-8 9,-17 3,-66 25,-147 45,-164 24,-20 34,-22 149,-19 117,3 206,1 320,-5 179,-10 500,-13 505,-4 3,4 18,3 33,-2 48,-19 72,-20 97,-3 17,11 25,12 25,5 0,-7 4,-10 9,-6 5,3 12,1 15,-4 3,-5 24,-8 46,-7 22,0 40,-3 40,-7 0,-4 39,-5 88,-2 103,6 113,8 130,19 8,5 18,4 25,-3 21,-21 73,-13 101,16 22,21 27,34 23,58 -13,76 -11,74 -85,96 -31,9 -49,10 -60,2 -11,-7 -26,-7 -42,-1 -24,9 -122,4 -141,-7 -5,-4 -129,-5 -276,-4 -306,2 -341,4 -350,13 -9,9 -63,7 -63,-2 0,-5 -53,-6 -117,-4 -153,6 -228,5 -279,-3 -36,-6 -43,-4 -61,19 -11,14 -24,22 -28,18 -5,-4 -5,-2 -2,5 4,6 2,17 -5,25 -7,7 -14,22 -15,33 -6,50 -16,90 -22,95 -22,15 -57,78 -53,94 2,10 -1,22 -7,26 -6,3 -14,17 -16,31 -3,13 -9,25 -15,27 -6,2 -17,10 -24,18 -17,16 -73,18 -110,4 -27,-10 -45,-36 -51,-78 -4,-27 -27,-102 -48,-157 -7,-16 -12,-32 -12,-35 0,-3 -6,-15 -13,-28 -7,-12 -14,-36 -15,-52 -1,-17 -5,-30 -9,-30 -4,0 -10,-9 -13,-21 l -7,-21 -14,21 c -8,11 -13,24 -12,28 6,25 -33,89 -46,75 -4,-3 -4,1 -1,10 4,10 1,34 -6,55 -14,42 -18,55 -24,97 -2,16 -11,36 -18,45 -8,9 -12,22 -10,29 3,8 -4,16 -16,19 -12,3 -21,9 -21,13 0,12 -83,5 -88,-8 -2,-7 -10,-12 -17,-12 -15,0 -38,-67 -29,-82 3,-4 1,-8 -5,-8 -6,0 -14,-12 -17,-27 -4,-16 -18,-45 -31,-65 -12,-21 -23,-42 -23,-48 0,-5 -4,-10 -9,-10 -10,0 -18,-20 -26,-61 -3,-12 -10,-26 -17,-31 -7,-4 -9,-8 -5,-8 5,0 -1,-12 -12,-26 -11,-15 -18,-31 -14,-38 3,-6 3,-8 -2,-4 -4,4 -13,0 -20,-9 -10,-14 -14,-12 -34,16 -12,17 -24,43 -25,58 -2,16 -5,28 -6,28 -1,0 -3,9 -4,20 -3,21 -12,73 -22,115 -3,14 -7,40 -10,59 -2,19 -9,40 -15,47 -5,6 -9,16 -8,20 6,36 -37,84 -76,84 -27,0 -75,-39 -75,-61 0,-5 -4,-9 -8,-9 -14,0 -29,-42 -26,-73 2,-15 -1,-25 -7,-22 -5,4 -9,-1 -9,-9 0,-9 -5,-16 -11,-16 -5,0 -8,-4 -5,-9 4,-5 3,-11 -1,-13 -14,-6 -53,-67 -53,-82 0,-8 -15,-32 -34,-52 -31,-34 -37,-36 -72,-30 -22,5 -50,8 -64,8 -35,1 -224,-14 -230,-17 -9,-5 -36,19 -44,40 -4,11 -7,176 -7,368 0,199 -4,358 -9,373 -17,43 -22,85 -24,194 -3,101 -8,147 -21,200 -4,14 -6,37 -6,53 1,15 -5,41 -14,57 -8,16 -16,37 -18,47 -4,28 -31,83 -40,83 -5,0 -5,5 -2,10 3,6 -1,13 -9,16 -9,3 -14,9 -12,13 6,9 -24,71 -49,102 -11,13 -36,35 -55,49 -19,13 -39,30 -43,37 -5,7 -12,11 -17,8 -4,-3 -10,2 -14,10 -3,8 -10,15 -16,15 -6,0 -18,7 -26,15 -9,8 -31,15 -50,15 -19,0 -34,4 -34,9 0,5 -45,8 -99,7 -88,-1 -102,-4 -123,-23 -14,-13 -29,-23 -35,-23 -7,0 -20,-11 -31,-25 -19,-24 -66,-35 -74,-17 -6,14 -86,52 -111,52 -14,0 -29,5 -32,10 -3,6 -17,10 -30,10 -13,0 -27,5 -30,10 -8,14 -60,11 -115,-6 z m 424,-360 c 9,-3 14,-10 11,-14 -3,-4 2,-13 10,-20 8,-7 15,-20 15,-29 0,-9 7,-36 16,-60 18,-53 12,-91 -15,-91 -32,0 -50,11 -44,26 3,8 0,14 -5,14 -20,0 -31,112 -17,158 8,25 7,24 29,16 z"
       id="path1"
       style="fill:#548a8a;fill-opacity:1" />
    <path
       d="m 4735,1394 c -18,-43 -19,-78 -5,-105 6,-10 7,-19 3,-20 -4,0 -27,-1 -51,-3 -50,-3 -72,-21 -77,-65 -5,-41 27,-77 79,-86 35,-7 36,-8 36,-54 0,-37 5,-52 23,-67 32,-28 64,-44 86,-44 10,0 23,6 29,13 10,12 30,100 35,151 2,26 6,29 41,33 47,5 66,26 64,74 -2,55 -19,72 -78,73 -27,0 -50,6 -51,11 -5,96 -25,125 -85,125 -29,0 -36,-5 -49,-36 z"
       id="path2"
       style="fill:#548a8a;fill-opacity:1" />
    <path
       d="m 3755,1264 c -5,-1 -36,-5 -68,-9 -70,-8 -97,-31 -91,-78 2,-18 12,-43 22,-57 19,-24 22,-25 167,-28 151,-4 196,4 221,37 11,14 11,22 2,61 -5,25 -57,58 -101,66 -45,7 -136,12 -152,8 z"
       id="path3"
       style="fill:#548a8a;fill-opacity:1" />
  </g>
</svg>
