<svg role="img" viewBox="0 0 800 800" xmlns="http://www.w3.org/2000/svg" id="Vaultwarden--Streamline-Simple-Icons" height="800" width="800">
  <desc>
    Vaultwarden Streamline Icon: https://streamlinehq.com
  </desc>
  <title>Vaultwarden</title>
  <path d="M384.68333333333334 14.923333333333334c-4.766666666666667 7.936666666666667 -11.113333333333333 17.463333333333335 -14.606666666666667 20.953333333333337 -5.716666666666668 6.033333333333333 -6.033333333333333 5.716666666666668 -24.44666666666667 -12.383333333333335 -22.223333333333333 -22.22 -25.71666666666667 -21.586666666666666 -36.2 6.986666666666667 -4.44 11.746666666666668 -9.833333333333334 20 -14.283333333333333 22.540000000000003 -6.3500000000000005 3.1766666666666667 -9.520000000000001 2.223333333333333 -25.39666666666667 -9.203333333333335 -26.67 -18.733333333333338 -31.43 -15.876666666666669 -36.513333333333335 20.633333333333333 -1.2666666666666668 9.21 -3.81 15.876666666666669 -6.983333333333333 17.14666666666667 -2.5400000000000005 0.9533333333333334 -13.333333333333336 -2.223333333333333 -23.496666666666666 -7.300000000000001 -26.033333333333335 -12.386666666666667 -29.843333333333334 -9.526666666666667 -30.160000000000004 20.633333333333333 0 12.383333333333335 -1.586666666666667 24.12666666666667 -3.173333333333334 25.71666666666667 -2.223333333333333 2.223333333333333 -10.48 1.586666666666667 -26.033333333333335 -2.22 -30.48 -7.303333333333334 -32.38666666666667 -5.4 -25.083333333333332 25.080000000000002 3.8066666666666666 15.556666666666668 4.443333333333333 23.813333333333336 2.22 26.033333333333335 -1.586666666666667 1.59 -13.333333333333336 3.1766666666666667 -25.71666666666667 3.1766666666666667 -30.47666666666667 0.3166666666666667 -33.02 4.126666666666667 -20.31666666666667 30.163333333333338 12.38 26.033333333333335 9.206666666666667 33.653333333333336 -14.923333333333334 36.830000000000005 -35.56333333333333 5.076666666666667 -37.78333333333333 9.523333333333335 -18.1 35.873333333333335 15.876666666666669 20.953333333333337 14.923333333333334 24.133333333333333 -11.43 33.653333333333336 -28.253333333333337 10.8 -28.890000000000004 14.286666666666667 -6.666666666666668 36.513333333333335 18.1 18.413333333333334 18.416666666666668 18.733333333333338 12.383333333333335 24.44666666666667 -3.49 3.4933333333333336 -13.016666666666667 9.843333333333334 -20.953333333333337 14.606666666666667 -19.686666666666667 11.426666666666668 -19.686666666666667 19.04666666666667 0 30.47666666666667 7.936666666666667 4.766666666666667 17.463333333333335 11.11 20.953333333333337 14.603333333333333 6.033333333333333 5.716666666666668 5.716666666666668 6.033333333333333 -12.383333333333335 24.450000000000003 -22.223333333333333 22.223333333333333 -21.586666666666666 25.71666666666667 6.986666666666667 36.19666666666667 11.75 4.44 20 9.836666666666666 22.540000000000003 14.283333333333333 3.1766666666666667 6.3500000000000005 2.223333333333333 9.523333333333335 -9.203333333333335 25.400000000000002 -18.733333333333338 26.66666666666667 -15.876666666666669 31.42666666666667 20.636666666666667 36.51 9.206666666666667 1.2666666666666668 15.873333333333335 3.81 17.143333333333334 6.983333333333333 0.9533333333333334 2.543333333333334 -2.22 13.333333333333336 -7.300000000000001 23.5 -12.386666666666667 26.030000000000005 -9.526666666666667 29.843333333333334 20.633333333333333 30.160000000000004 12.383333333333335 0 24.133333333333333 1.586666666666667 25.71666666666667 3.1700000000000004 2.223333333333333 2.223333333333333 1.586666666666667 10.48 -2.22 26.040000000000003 -7.300000000000001 30.47666666666667 -5.4 32.38333333333334 25.080000000000002 25.080000000000002 15.556666666666668 -3.81 23.813333333333336 -4.446666666666666 26.03666666666667 -2.223333333333333 1.586666666666667 1.586666666666667 3.173333333333334 13.333333333333336 3.173333333333334 25.71666666666667 0.3166666666666667 30.48 4.13 33.02 30.163333333333338 20.320000000000004 26.033333333333335 -12.383333333333335 33.653333333333336 -9.206666666666667 36.830000000000005 14.920000000000002 5.080000000000001 35.56666666666667 9.523333333333335 37.78333333333333 35.873333333333335 18.1 20.953333333333337 -15.876666666666669 24.133333333333333 -14.923333333333334 33.65666666666667 11.433333333333335 10.793333333333333 28.253333333333337 13.966666666666667 28.890000000000004 36.830000000000005 6.343333333333334 22.22 -21.586666666666666 20.31666666666667 -21.903333333333336 38.730000000000004 9.21 11.433333333333335 19.366666666666667 19.05 19.366666666666667 30.483333333333334 0 18.41 -31.113333333333337 16.506666666666668 -30.800000000000004 38.730000000000004 -9.21 22.863333333333333 22.546666666666667 26.033333333333335 21.91 36.513333333333335 -6.666666666666668 4.443333333333333 -11.743333333333334 9.840000000000002 -20 14.286666666666667 -22.540000000000003 6.3500000000000005 -3.1766666666666667 9.526666666666667 -2.223333333333333 25.400000000000002 9.206666666666667 26.66666666666667 18.733333333333338 31.433333333333334 15.873333333333335 36.51 -20.633333333333333 1.2700000000000002 -9.21 3.81 -15.876666666666669 6.986666666666667 -17.14666666666667 2.5400000000000005 -0.9533333333333334 13.333333333333336 2.22 23.493333333333336 7.300000000000001 26.033333333333335 12.383333333333335 29.846666666666668 9.523333333333335 30.16666666666667 -20.633333333333333 0 -12.383333333333335 1.58 -24.133333333333333 3.1700000000000004 -25.72 2.223333333333333 -2.223333333333333 10.476666666666668 -1.586666666666667 26.033333333333335 2.223333333333333 30.483333333333334 7.300000000000001 32.38666666666667 5.4 25.083333333333332 -25.080000000000002 -3.81 -15.56 -4.443333333333333 -23.81666666666667 -2.223333333333333 -26.040000000000003 1.59 -1.5833333333333335 13.333333333333336 -3.1700000000000004 25.71666666666667 -3.1700000000000004 30.48 -0.3166666666666667 33.02 -4.126666666666667 20.323333333333334 -30.16666666666667 -12.383333333333335 -26.030000000000005 -9.21 -33.653333333333336 14.920000000000002 -36.82666666666667 35.55666666666667 -5.076666666666667 37.78 -9.523333333333335 18.1 -35.873333333333335 -15.876666666666669 -20.95666666666667 -14.926666666666668 -24.133333333333333 11.426666666666668 -33.65666666666667 28.256666666666668 -10.793333333333333 28.893333333333334 -13.966666666666667 6.3500000000000005 -36.833333333333336 -21.590000000000003 -22.22 -21.90666666666667 -20.31666666666667 9.206666666666667 -38.72666666666667 9.843333333333334 -6.033333333333333 14.606666666666667 -10.8 14.606666666666667 -15.243333333333334 0 -4.446666666666666 -4.766666666666667 -9.21 -14.606666666666667 -15.236666666666668 -31.113333333333337 -18.416666666666668 -30.800000000000004 -16.513333333333335 -9.206666666666667 -38.736666666666665 22.543333333333337 -22.86 21.90666666666667 -26.033333333333335 -6.666666666666668 -36.51 -11.746666666666668 -4.446666666666666 -20.003333333333334 -9.843333333333334 -22.543333333333337 -14.290000000000003 -3.173333333333334 -6.3500000000000005 -2.223333333333333 -9.523333333333335 9.21 -25.39666666666667 18.733333333333338 -26.67 15.870000000000003 -31.43 -20.64 -36.513333333333335 -9.206666666666667 -1.2666666666666668 -15.873333333333335 -3.81 -17.143333333333334 -6.986666666666667 -0.9533333333333334 -2.5400000000000005 2.223333333333333 -13.333333333333336 7.300000000000001 -23.493333333333336 12.383333333333335 -26.033333333333335 9.526666666666667 -29.843333333333334 -20.633333333333333 -30.16666666666667 -12.383333333333335 0 -24.130000000000003 -1.58 -25.72 -3.1700000000000004 -2.22 -2.22 -1.586666666666667 -10.476666666666668 2.223333333333333 -26.033333333333335 7.300000000000001 -30.47666666666667 5.4 -32.38333333333334 -25.080000000000002 -25.080000000000002 -15.56 3.8066666666666666 -23.813333333333336 4.443333333333333 -26.033333333333335 2.22 -1.5933333333333335 -1.59 -3.1766666666666667 -13.333333333333336 -3.1766666666666667 -25.71666666666667 -0.3166666666666667 -30.48 -4.126666666666667 -33.02 -30.16666666666667 -20.320000000000004 -26.030000000000005 12.38 -33.650000000000006 9.21 -36.82333333333334 -14.923333333333334 -5.080000000000001 -35.55666666666667 -9.526666666666667 -37.78 -35.87666666666667 -18.1 -20.95666666666667 15.88 -24.133333333333333 14.926666666666668 -33.653333333333336 -11.426666666666668 -10.8 -28.253333333333337 -14.290000000000003 -28.890000000000004 -36.513333333333335 -6.666666666666668 -18.416666666666668 18.1 -18.733333333333338 18.416666666666668 -24.450000000000003 12.383333333333335 -3.49 -3.4933333333333336 -9.840000000000002 -13.016666666666667 -14.600000000000001 -20.953333333333337C409.13 4.763333333333334 404.3633333333334 0 399.92 0c-4.443333333333333 0 -9.203333333333335 4.763333333333334 -15.236666666666668 14.923333333333334zm31.113333333333337 64.45c3.4933333333333336 3.4933333333333336 6.3500000000000005 10.476666666666668 6.3500000000000005 15.873333333333335 0 5.4 -2.856666666666667 12.383333333333335 -6.3500000000000005 15.876666666666669 -13.653333333333334 13.65 -38.1 3.4933333333333336 -38.1 -15.876666666666669 0 -12.066666666666666 10.160000000000002 -22.223333333333333 22.223333333333333 -22.223333333333333 5.4 0 12.383333333333335 2.856666666666667 15.876666666666669 6.3500000000000005zM366.90000000000003 133.34666666666666c30.800000000000004 29.843333333333334 35.24333333333333 29.843333333333334 66.04 0l22.86 -22.223333333333333 22.223333333333333 6.3500000000000005c25.400000000000002 6.983333333333333 64.77000000000001 23.810000000000002 64.77000000000001 27.94 0 1.2666666666666668 -29.843333333333334 87.62333333333333 -66.35666666666667 191.4466666666667 -36.51 103.82000000000001 -68.26 194.62 -70.16666666666667 201.92333333333335 -2.22 7.62 -5.080000000000001 13.653333333333334 -6.3500000000000005 13.653333333333334 -1.2666666666666668 0 -3.81 -5.4 -5.4 -11.746666666666668 -1.9000000000000001 -6.666666666666668 -33.333333333333336 -98.10666666666667 -70.16333333333334 -203.51333333333335 -37.14333333333334 -105.40666666666667 -67.30666666666667 -192.40000000000003 -67.30666666666667 -193.03333333333336 0 -3.81 70.48333333333333 -31.113333333333337 85.40666666666667 -32.70333333333333 0.9500000000000001 -0.3166666666666667 11.746666666666668 9.523333333333335 24.443333333333335 21.90666666666667zm-111.44000000000001 320.03333333333336c45.08666666666667 126.36000000000001 80.96 230.18000000000004 80.01 231.13333333333335 -2.223333333333333 2.5400000000000005 -35.87666666666667 -7.300000000000001 -50.160000000000004 -14.923333333333334 -11.433333333333335 -5.716666666666668 -11.75 -6.3500000000000005 -15.876666666666669 -33.333333333333336 -2.543333333333334 -17.46666666666667 -6.3533333333333335 -30.16666666666667 -10.163333333333334 -35.24333333333333 -6.346666666666668 -7.936666666666667 -7.300000000000001 -7.936666666666667 -28.890000000000004 -5.716666666666668 -47.62333333333334 5.4 -45.71666666666667 6.033333333333333 -64.45 -19.04666666666667 -20.320000000000004 -26.986666666666668 -39.366666666666674 -64.77000000000001 -48.57666666666667 -96.83666666666667 -5.4 -17.78 -7.300000000000001 -35.56 -8.57 -69.84666666666668l-1.59 -46.040000000000006 28.573333333333334 -15.236666666666668c38.41666666666667 -20 39.366666666666674 -23.496666666666666 19.683333333333337 -62.546666666666674 -14.283333333333333 -28.256666666666668 -14.283333333333333 -26.66666666666667 4.133333333333334 -53.34 5.076666666666667 -7.62 10.473333333333333 -12.700000000000001 11.743333333333334 -11.113333333333333 1.2666666666666668 1.2700000000000002 39.053333333333335 105.72333333333334 84.13333333333334 232.09Zm394.01 -207.00333333333333 7.94 13.333333333333336 -13.020000000000001 25.71666666666667c-19.683333333333337 39.366666666666674 -18.733333333333338 42.86000000000001 19.366666666666667 62.86333333333334l28.26 14.920000000000002v35.87666666666667c0 41.593333333333334 -5.716666666666668 73.97666666666667 -19.366666666666667 108.58333333333334 -10.48 26.35 -31.433333333333334 61.27666666666667 -48.266666666666666 80.96l-10.790000000000001 12.700000000000001 -25.080000000000002 -3.81c-13.653333333333334 -2.22 -28.893333333333334 -3.8066666666666666 -33.653333333333336 -3.8066666666666666 -13.333333333333336 0 -20.006666666666668 11.743333333333334 -24.450000000000003 42.86000000000001l-4.126666666666667 27.62 -16.826666666666668 7.300000000000001c-19.366666666666667 8.576666666666666 -42.86333333333334 15.56 -45.08666666666667 13.020000000000001 -1.2666666666666668 -1.2666666666666668 133.66666666666666 -384.16333333333336 161.60666666666668 -459.09333333333336l3.173333333333334 -7.936666666666667 6.3500000000000005 7.936666666666667c3.4933333333333336 4.126666666666667 9.843333333333334 13.653333333333334 13.966666666666667 20.95666666666667zM125.28666666666668 290.5c14.926666666666668 14.606666666666667 6.033333333333333 36.513333333333335 -14.916666666666668 36.513333333333335 -13.333333333333336 0 -21.593333333333337 -7.936666666666667 -21.593333333333337 -20.953333333333337 0 -20.953333333333337 21.91 -30.48 36.513333333333335 -15.56zm574.0333333333334 -4.44c9.203333333333335 5.076666666666667 11.743333333333334 8.886666666666667 11.743333333333334 19.996666666666666 0 12.700000000000001 -8.256666666666668 20.95666666666667 -21.270000000000003 20.95666666666667 -21.273333333333333 0 -30.48 -21.590000000000003 -15.243333333333334 -36.513333333333335 8.573333333333334 -8.886666666666667 14.290000000000003 -9.840000000000002 24.76666666666667 -4.44zM241.17333333333335 638.4766666666667c11.43 27.303333333333338 -27.623333333333335 44.13 -40.32333333333334 17.14666666666667 -4.763333333333334 -9.843333333333334 -4.763333333333334 -11.433333333333335 0.3166666666666667 -19.053333333333335 10.796666666666669 -16.506666666666668 33.02 -15.553333333333335 40 1.9066666666666667zm352.1 -8.573333333333334c7.933333333333334 6.3500000000000005 10.156666666666668 17.46666666666667 5.076666666666667 27.30666666666667 -13.016666666666667 25.39666666666667 -50.800000000000004 7.300000000000001 -39.68333333333333 -18.733333333333338 5.710000000000001 -14.286666666666667 22.223333333333333 -18.413333333333334 34.60666666666667 -8.573333333333334z" fill="#ffffff" stroke-width="33.3333"></path>
</svg>